<svg width="138" height="32" viewBox="0 0 138 32" fill="none" xmlns="http://www.w3.org/2000/svg">
<path d="M75.9668 9.06785H80.6138L72.1094 31.6994H68.7549L54.5825 0.0906067H59.2295L70.4346 25.2368L75.9668 9.06785Z" fill="#339CFF"/>
<path d="M89.3544 30.8645C87.9665 30.1016 86.8503 28.9258 86.1609 27.5C85.3876 25.8318 85.0123 24.0068 85.0645 22.1689V18.4876C85.0123 16.6707 85.3878 14.8669 86.1609 13.2219C86.8507 11.804 87.9676 10.6379 89.3544 9.88756C90.9243 9.13528 92.6429 8.74469 94.3837 8.74469C96.1244 8.74469 97.8431 9.13528 99.4129 9.88756C100.8 10.6379 101.917 11.804 102.606 13.2219C103.381 14.8665 103.759 16.6703 103.708 18.4876V22.2193C103.759 24.0431 103.382 25.8534 102.606 27.5049C101.912 28.9219 100.796 30.0901 99.4129 30.8495C97.8445 31.6068 96.1253 32 94.3837 32C92.642 32 90.9228 31.6068 89.3544 30.8495V30.8645ZM97.9997 26.3382C98.8496 25.3625 99.2721 23.9996 99.2721 22.2394V18.4925C99.2721 16.7323 98.8479 15.3728 97.9997 14.4139C97.0253 13.4903 95.7338 12.9756 94.3912 12.9756C93.0486 12.9756 91.7571 13.4903 90.7827 14.4139C89.9311 15.3728 89.507 16.7323 89.5103 18.4925V22.2193C89.5103 23.9795 89.9328 25.3424 90.7827 26.318C91.7512 27.2531 93.0449 27.7757 94.3912 27.7757C95.7375 27.7757 97.0312 27.2531 97.9997 26.318V26.3382Z" fill="#339CFF"/>
<path d="M117.051 25.8505C117.022 26.3044 117.148 26.7545 117.408 27.1277C117.529 27.2749 117.684 27.3921 117.858 27.4698C118.033 27.5474 118.223 27.5835 118.414 27.5753H120.506V31.805H117.891C116.206 31.805 114.873 31.302 113.978 30.2358C113.083 29.1696 112.595 27.7213 112.595 25.8102V0H117.041L117.051 25.8505Z" fill="#339CFF"/>
<path d="M133.964 25.8505C133.934 26.3053 134.062 26.7562 134.326 27.1277C134.447 27.2761 134.601 27.394 134.775 27.4717C134.95 27.5495 135.141 27.585 135.332 27.5753H137.424V31.805H134.809C134.081 31.8477 133.353 31.729 132.677 31.4578C132.001 31.1865 131.392 30.7693 130.896 30.2358C129.976 29.1898 129.513 27.7213 129.513 25.8102V0H133.959L133.964 25.8505Z" fill="#339CFF"/>
<path d="M48.0545 7.13156L52.0779 9.19359L35.7128 26.6049L32.5997 25.3073L33.4798 2.19785H37.7798L36.6884 19.946L48.0545 7.13156Z" fill="#339CFF"/>
<path d="M25.0507 2.19785H29.3657L30.1 25.6995L26.9869 26.9821L10.4558 9.20857L14.7659 7.43827L26.0716 20.3284L25.0507 2.19785Z" fill="#339CFF"/>
<path d="M6.08035 16.335L7.87579 12.0302L25.5536 28.6618L24.251 31.7699L0 31.7345L1.79543 27.4346L18.8948 27.7112L6.08035 16.335Z" fill="#339CFF"/>
<path d="M43.6187 27.6458L60.7181 27.4597L62.4884 31.7748L38.2273 31.6741L36.9499 28.5562L54.7182 12.025L56.4885 16.3401L43.6187 27.6458Z" fill="#339CFF"/>
</svg>
